<?xml version="1.0" encoding="utf-8"?>
<!-- Generator: Adobe Illustrator 24.0.0, SVG Export Plug-In . SVG Version: 6.00 Build 0)  -->
<svg version="1.1" id="Layer_1" xmlns="http://www.w3.org/2000/svg" xmlns:xlink="http://www.w3.org/1999/xlink" x="0px" y="0px"
	 viewBox="0 0 150 150" style="enable-background:new 0 0 150 150;" xml:space="preserve">
<style type="text/css">
	.st0{fill:#FFFFFF;}
	.st1{fill:none;stroke:#000000;stroke-miterlimit:10;}
</style>
<g>
	<polygon class="st0" points="-391.96,-86.5 -415.92,-128 -391.96,-169.5 -344.04,-169.5 -320.08,-128 -344.04,-86.5 	"/>
	<path d="M-344.33-169l23.67,41l-23.67,41h-47.34l-23.67-41l23.67-41H-344.33 M-343.75-170h-48.5l-24.25,42l24.25,42h48.5l24.25-42
		L-343.75-170L-343.75-170z"/>
</g>
<g>
	<circle class="st0" cx="-148" cy="-126" r="42.5"/>
	<path d="M-148-168c23.16,0,42,18.84,42,42s-18.84,42-42,42s-42-18.84-42-42S-171.16-168-148-168 M-148-169c-23.75,0-43,19.25-43,43
		s19.25,43,43,43s43-19.25,43-43S-124.25-169-148-169L-148-169z"/>
</g>
<g>
	<path class="st0" d="M44-82.5c-3.03,0-5.5-2.47-5.5-5.5v-76c0-3.03,2.47-5.5,5.5-5.5h76c3.03,0,5.5,2.47,5.5,5.5v76
		c0,3.03-2.47,5.5-5.5,5.5H44z"/>
	<path d="M120-169c2.76,0,5,2.24,5,5v76c0,2.76-2.24,5-5,5H44c-2.76,0-5-2.24-5-5v-76c0-2.76,2.24-5,5-5H120 M120-170H44
		c-3.3,0-6,2.7-6,6v76c0,3.3,2.7,6,6,6h76c3.3,0,6-2.7,6-6v-76C126-167.3,123.3-170,120-170L120-170z"/>
</g>
<g>
	<g>
		<line class="st1" x1="-416.5" y1="63.5" x2="-405.5" y2="74.5"/>
	</g>
	<line class="st1" x1="-391.5" y1="64.5" x2="-405.5" y2="74.5"/>
	<g>
		<line class="st1" x1="-391.5" y1="64.5" x2="-380.5" y2="75.5"/>
	</g>
	<line class="st1" x1="-366.5" y1="65.5" x2="-380.5" y2="75.5"/>
	<g>
		<line class="st1" x1="-366.5" y1="64.5" x2="-355.5" y2="75.5"/>
	</g>
	<line class="st1" x1="-341.5" y1="65.5" x2="-355.5" y2="75.5"/>
</g>
<g>
	<g>
		<line class="st1" x1="-416.5" y1="74.5" x2="-405.5" y2="85.5"/>
	</g>
	<line class="st1" x1="-391.5" y1="75.5" x2="-405.5" y2="85.5"/>
	<g>
		<line class="st1" x1="-391.5" y1="75.5" x2="-380.5" y2="86.5"/>
	</g>
	<line class="st1" x1="-366.5" y1="76.5" x2="-380.5" y2="86.5"/>
	<g>
		<line class="st1" x1="-366.5" y1="75.5" x2="-355.5" y2="86.5"/>
	</g>
	<line class="st1" x1="-341.5" y1="76.5" x2="-355.5" y2="86.5"/>
</g>
<g>
	<g>
		<line class="st1" x1="-416.5" y1="85.5" x2="-405.5" y2="96.5"/>
	</g>
	<line class="st1" x1="-391.5" y1="86.5" x2="-405.5" y2="96.5"/>
	<g>
		<line class="st1" x1="-391.5" y1="86.5" x2="-380.5" y2="97.5"/>
	</g>
	<line class="st1" x1="-366.5" y1="87.5" x2="-380.5" y2="97.5"/>
	<g>
		<line class="st1" x1="-366.5" y1="86.5" x2="-355.5" y2="97.5"/>
	</g>
	<line class="st1" x1="-341.5" y1="87.5" x2="-355.5" y2="97.5"/>
</g>
<g>
	<g>
		<path d="M-130.99,102.43l-20.99-20.01l10.35-10.86l20.99,20.01L-130.99,102.43z M-150.56,82.38l19.54,18.63l8.97-9.41
			l-19.54-18.63L-150.56,82.38z"/>
	</g>
	<g>
		<path d="M-161.38,73.44l-20.99-20.01l10.35-10.86l20.99,20.01L-161.38,73.44z M-180.95,53.4l19.54,18.63l8.97-9.41l-19.54-18.63
			L-180.95,53.4z"/>
	</g>
	<g>
		<path d="M-141.59,72.97l-10.86-10.35l20.01-20.99l10.86,10.35L-141.59,72.97z M-151.03,62.59l9.41,8.97l18.63-19.54l-9.41-8.97
			L-151.03,62.59z"/>
	</g>
	<g>
		<path d="M-170.57,103.37l-10.86-10.35l20.01-20.99l10.86,10.35L-170.57,103.37z M-180.01,92.98l9.41,8.97l18.63-19.54l-9.41-8.97
			L-180.01,92.98z"/>
	</g>
	<g>
	</g>
</g>
<g>
	<polygon class="st0" points="77,101.5 45.85,117.88 51.8,83.19 26.6,58.62 61.42,53.56 77,22 92.58,53.56 127.4,58.62 102.2,83.19 
		108.15,117.88 	"/>
	<path d="M77,23.13l15.01,30.41l0.23,0.47l0.52,0.08l33.56,4.88l-24.29,23.67l-0.38,0.37l0.09,0.52l5.73,33.43l-30.02-15.78
		L77,100.93l-0.47,0.24l-30.02,15.78l5.73-33.43l0.09-0.52l-0.38-0.37L27.67,58.97l33.56-4.88l0.52-0.08l0.23-0.47L77,23.13
		 M77,20.87L61.09,53.11l-35.57,5.17l25.74,25.09l-6.08,35.43L77,102.06l31.81,16.73l-6.08-35.43l25.74-25.09l-35.57-5.17L77,20.87
		L77,20.87z"/>
</g>
</svg>
